<?xml version="1.0" standalone="no"?><!DOCTYPE svg PUBLIC "-//W3C//DTD SVG 1.1//EN" "http://www.w3.org/Graphics/SVG/1.1/DTD/svg11.dtd"><svg t="1601187106131" class="icon" viewBox="0 0 1024 1024" version="1.1" xmlns="http://www.w3.org/2000/svg" p-id="4872" xmlns:xlink="http://www.w3.org/1999/xlink" width="200" height="200"><defs><style type="text/css"></style></defs><path d="M146 143.2v597h568.6V483.5c-0.3-9.3 0.6-18.7 2.7-27.8 3.6-18.7 21.5-30.9 40.2-27.6 9.2 0 17.9 3.7 24.3 10.4 6.4 6.7 9.7 15.6 9.2 24.8 0 98.8 0.7 197.9 0 296.9-0.6 28.7-22.7 52.2-51.2 54.8-10.3 1.3-20.7 1.8-31 1.6H150c-62.1 0-82.6-19.7-82.6-82.4V147.4c0-59 21.2-80.9 79.5-80.9h399.3c8.5-0.2 17 0.5 25.3 2.3 18.7 3.3 31.3 21 28.2 39.7-0.7 18.9-16.5 33.9-35.3 33.6h-25.6L146 143.2z" p-id="4873"></path><path d="M616.7 961.7H342.8c-8.5 0.4-17-0.1-25.5-1.4-19.4-3.1-33.1-20.6-31.4-40.1 1.7-19.5 18.2-34.5 37.8-34.2 52.1-0.7 104.1-1 156.1-1h378.8c21.5 0 27.3-6.2 27.2-27.3V420c-0.2-11 0.3-22.1 1.7-33 1.3-18 16.7-31.7 34.8-31 18.9-2.3 36.1 11 38.6 29.9 1.3 7.5 1.8 15.2 1.6 22.8v476.1c0 58.4-16.8 75.2-74.2 75.2H616.7v1.7zM469.3 490.4c17.1-18.8 31-35.7 46.6-51.4 109-109.3 218.2-218.6 327.6-327.6 7.3-7.3 14.5-17.8 23.1-19.4 14.1-3.1 28.9-1.5 42 4.5 7 4.5 12 11.5 13.8 19.5 1.8 8.1 0.3 16.6-4.1 23.5-5.2 8.6-11.6 16.6-18.9 23.5-127.4 127.5-254.7 254.9-382 382.1-38 37.9-62.1 38.2-99.5 0-60.2-60.4-120.4-120.9-180.3-181.6-21.9-22.1-23.9-43.1-6.4-60.1 17.5-16.9 37-15.5 59.9 7.4 57.8 58.6 115.6 116.7 178.2 179.6z" p-id="4874"></path></svg>